<?xml version="1.0" encoding="utf-8"?>
<!-- Generator: Adobe Illustrator 25.3.1, SVG Export Plug-In . SVG Version: 6.00 Build 0)  -->
<svg version="1.1" id="Layer_1" xmlns="http://www.w3.org/2000/svg" xmlns:xlink="http://www.w3.org/1999/xlink" x="0px" y="0px"
	 viewBox="0 0 180 180" style="enable-background:new 0 0 180 180;" xml:space="preserve">
<style type="text/css">
	.st0{fill:#006a67;}
	.st1{fill:#F8EBC1;}
</style>
<g>
	<path class="st0" d="M48.7,32.5c54.5-42.6,120.9,17.1,59.8,60c-26.7,18.8,8.4,25.9-35.2,24.5c-1.7-16.6-3.3-21.5,0.6-27.2
		c7-10.3,19.1-12.2,26.1-23.5c7.9-12.7-1.9-27.5-21.6-22.1C57.4,49.9,64.3,58.3,48.7,32.5z"/>
	<path class="st0" d="M66.4,144.4c0.7-20.6,32.5-19.3,31.8,1.1S65.7,165,66.4,144.4z"/>
	<path class="st0" d="M82.5,122.2c-2.7,0-5.8-0.1-9.4-0.2l-4.4-0.1l-0.4-4.3c-0.3-3-0.6-5.6-0.9-7.9c-1.3-11-1.9-16.4,2.3-22.6
		l0.1-0.2l0.8,0.6l-0.1,0.1c-4,5.9-3.4,11.2-2.2,21.9c0.3,2.3,0.6,4.9,0.9,7.9l0.4,3.5l3.5,0.1c17.5,0.6,23.1-0.1,26.1-3.1
		c0.9-0.9,1.5-1.9,1.7-3.1l1,0.2c-0.3,1.4-1,2.6-2,3.6C97.3,121.2,93.2,122.2,82.5,122.2z"/>
	<path class="st0" d="M98.6,58.9l-1-0.1c0.1-0.5,0.1-0.9,0.1-1.4c0-1.4-0.3-2.9-1-4.1c-1.7-3.1-5.2-5-9.8-5.1h-2.1l-0.1-1
		c0.7-0.1,1.4-0.1,2.2,0c4.9,0.2,8.8,2.2,10.7,5.7c0.8,1.4,1.2,3,1.1,4.6C98.7,57.9,98.7,58.4,98.6,58.9z"/>
	<path class="st0" d="M62,55.2h-0.3c-5.4-0.2-7.6-4-14.4-15.2c-0.9-1.5-1.8-3.1-2.9-4.9l-2.3-3.8l3.5-2.7
		c8.2-6.5,17.6-11.3,27.7-13.9l0.2,1c-10,2.6-19.3,7.2-27.4,13.7l-2.8,2.2l1.8,3c1.1,1.8,2.1,3.4,3,4.9c6.5,10.9,8.7,14.6,13.5,14.7
		c1.3,0,2.5-0.2,3.7-0.7l0.3,0.9C64.6,54.9,63.3,55.2,62,55.2z"/>
	<path class="st0" d="M124.7,85.1l-0.7-0.7c8.5-9.2,12.9-19.5,12.9-29.6c0-2.1-0.2-4.3-0.6-6.3l1-0.2c0.4,2.2,0.6,4.3,0.6,6.5
		C137.9,65.2,133.3,75.6,124.7,85.1z"/>
	<path class="st0" d="M81.7,165.3L81.7,165.3c-10.1-0.3-20.3-7.4-20.3-20.2v-0.8c0.1-2.4,0.5-4.7,1.3-6.9l0.9,0.3
		c-0.8,2.1-1.2,4.3-1.2,6.6v0.8c0,12.2,9.7,18.9,19.2,19.2L81.7,165.3z M100.7,155.1l-0.9-0.5c1.5-2.8,2.3-5.9,2.4-9.1v-0.8
		c0.1-3.8-1-7.6-3.1-10.8l0.8-0.6c2.2,3.4,3.3,7.3,3.2,11.3v0.8C103.1,148.9,102.2,152.1,100.7,155.1L100.7,155.1z"/>
</g>
<path class="st0" d="M162.9,27.7c0,3.8-3,6.8-6.8,6.8s-6.8-3-6.8-6.8c0-3.8,3-6.8,6.8-6.8C159.8,20.9,162.9,24,162.9,27.7
	C162.9,27.7,162.9,27.7,162.9,27.7z"/>
<circle class="st0" cx="135.3" cy="14.7" r="3"/>
<circle class="st0" cx="29.5" cy="80.2" r="3"/>
<circle class="st0" cx="-6.1" cy="47.4" r="3.2"/>
<path class="st0" d="M47.7,154.5c0,1.1-0.9,2.1-2.1,2.1s-2.1-0.9-2.1-2.1s0.9-2.1,2.1-2.1C46.7,152.5,47.7,153.4,47.7,154.5
	L47.7,154.5z"/>
<circle class="st0" cx="57.3" cy="203.1" r="4"/>
<path class="st1" d="M29.5,16.4c0,2.4-1.9,4.4-4.3,4.4s-4.4-1.9-4.4-4.3c0-2.4,1.9-4.4,4.3-4.4l0,0C27.5,12,29.5,14,29.5,16.4
	C29.5,16.4,29.5,16.4,29.5,16.4L29.5,16.4z"/>
<path class="st0" d="M79.2,6.2c0,1.1-0.9,2.1-2.1,2.1C76,8.3,75,7.4,75,6.2s0.9-2.1,2.1-2.1S79.2,5.1,79.2,6.2L79.2,6.2z"/>
<path class="st0" d="M142.1,101.9c0,1.1-0.9,2.1-2.1,2.1c-1.1,0-2.1-0.9-2.1-2.1c0-1.1,0.9-2.1,2.1-2.1S142.1,100.8,142.1,101.9
	L142.1,101.9z"/>
<path class="st1" d="M14.4,119.3c0,1.1-0.9,2.1-2.1,2.1s-2.1-0.9-2.1-2.1c0-1.1,0.9-2.1,2-2.1l0,0C13.5,117.2,14.4,118.1,14.4,119.3
	L14.4,119.3z"/>
<circle class="st1" cx="156.1" cy="50.4" r="3"/>
<path class="st1" d="M106.1,173c0,2.3-1.9,4.2-4.2,4.2c-2.3,0-4.2-1.9-4.2-4.2c0-2.3,1.9-4.2,4.1-4.2l0,0
	C104.2,168.9,106.1,170.7,106.1,173C106.1,173,106.1,173,106.1,173z"/>
<path class="st1" d="M114.9,17.7c0,0.7-0.6,1.3-1.3,1.3s-1.3-0.6-1.3-1.3s0.6-1.3,1.3-1.3l0,0l0,0C114.3,16.4,114.9,17,114.9,17.7z"
	/>
<circle class="st1" cx="157" cy="131.3" r="4"/>
<path class="st0" d="M133.4,156.6c0,0.6-0.5,1.1-1.1,1.1c-0.6,0-1.1-0.5-1.1-1.1c0-0.6,0.5-1.1,1.1-1.1l0,0
	C132.9,155.5,133.4,156,133.4,156.6C133.4,156.6,133.4,156.6,133.4,156.6z"/>
<path class="st1" d="M168.9,192.5c0,0.6-0.5,1.1-1.1,1.1s-1.1-0.5-1.1-1.1s0.5-1.1,1.1-1.1l0,0l0,0
	C168.4,191.4,168.9,191.9,168.9,192.5z"/>
<circle class="st1" cx="137.4" cy="203.7" r="3.2"/>
</svg>
